<svg width="458" height="216" viewBox="0 0 458 216" fill="none" xmlns="http://www.w3.org/2000/svg">
<rect width="458" height="216" fill="#003087"/>
<mask id="mask0" mask-type="alpha" maskUnits="userSpaceOnUse" x="287" y="39" width="142" height="139">
<path d="M357.849 39C396.978 39 428.698 69.9743 428.698 108.183C428.698 146.392 396.978 177.366 357.849 177.366C318.72 177.366 287 146.392 287 108.183C287 69.9743 318.72 39 357.849 39ZM357.849 80.5098C342.198 80.5098 329.51 92.8995 329.51 108.183C329.51 123.466 342.198 135.856 357.849 135.856C373.501 135.856 386.189 123.466 386.189 108.183C386.189 92.8995 373.501 80.5098 357.849 80.5098Z" fill="white"/>
</mask>
<g mask="url(#mask0)">
<path d="M357.849 39C396.978 39 428.698 69.9743 428.698 108.183C428.698 146.392 396.978 177.366 357.849 177.366C318.72 177.366 287 146.392 287 108.183C287 69.9743 318.72 39 357.849 39ZM357.849 80.5098C342.198 80.5098 329.51 92.8995 329.51 108.183C329.51 123.466 342.198 135.856 357.849 135.856C373.501 135.856 386.189 123.466 386.189 108.183C386.189 92.8995 373.501 80.5098 357.849 80.5098Z" fill="#D8D8D8"/>
<path fill-rule="evenodd" clip-rule="evenodd" d="M387.174 174.835C362.532 185.017 338.833 182.758 316.6 168.687C284.527 148.389 273.913 106.538 292.028 73.7904C292.448 73.0322 293.049 72.368 293.568 71.6582C306.708 79.5077 320.04 87.0269 333.607 94.149C333.287 94.959 332.998 95.7839 332.642 96.579C327.232 108.631 330.218 120.996 340.633 129.301C349.241 136.165 358.88 136.464 369.009 133.365C375.063 147.188 381.119 161.013 387.174 174.835Z" fill="#50C7F9"/>
<path fill-rule="evenodd" clip-rule="evenodd" d="M333.606 94.1538C320.04 87.03 306.708 79.5108 293.568 71.6604C304.31 52.9427 320.798 41.6231 341.938 36.9468C360.791 32.7764 378.791 35.5692 395.495 45.3515C387.702 58.3641 379.906 71.374 372.112 84.3856C366.042 81.7211 359.865 80.0142 353.054 81.2212C344.54 82.7305 338.582 87.6853 333.606 94.1538Z" fill="#A250F5"/>
<path fill-rule="evenodd" clip-rule="evenodd" d="M372.111 84.3896C379.906 71.3779 387.702 58.368 395.495 45.3555C419.538 59.6542 431.772 80.5839 432.404 108.029C416.918 108.03 401.432 108.032 385.946 108.035C385.484 97.8379 380.485 90.172 372.111 84.3896Z" fill="#38AF88"/>
<path fill-rule="evenodd" clip-rule="evenodd" d="M387.175 174.837C381.12 161.015 375.065 147.19 369.012 133.368C373.914 130.644 378.152 127.173 381.566 122.77C382.344 123.181 383.147 123.551 383.895 124.01C396.224 131.577 408.546 139.155 420.869 146.73C412.813 159.728 401.64 169.165 387.175 174.837Z" fill="#FFE350"/>
<path fill-rule="evenodd" clip-rule="evenodd" d="M420.868 146.732C408.546 139.156 396.223 131.578 383.895 124.012C383.147 123.552 382.344 123.182 381.564 122.772C384.093 118.162 385.663 113.28 385.947 108.032C401.432 108.029 416.918 108.027 432.404 108.025C432.462 122.038 428.867 135.01 420.868 146.732Z" fill="#EF533A"/>
</g>
<rect x="34.8652" y="88.4863" width="198.135" height="0.865217" fill="#ACADAD"/>
<rect opacity="0.5" x="34" y="69.4531" width="199" height="0.865217" fill="#ACADAD"/>
<rect opacity="0.5" width="199" height="0.865217" transform="matrix(1 0 0 -1 34 52.1484)" fill="#ACADAD"/>
<path d="M34 25.3262H34.8652V89.3523H34V25.3262Z" fill="#ACADAD"/>
<path d="M63.418 69.2001C85.9283 69.2001 85.9283 41.7656 99.9973 41.7656C114.066 41.7656 114.066 69.2001 136.577 69.2001" stroke="#1072EB" stroke-width="5" stroke-linecap="round" stroke-linejoin="round"/>
<path d="M112.734 75.8689C140.872 75.8689 129.195 21 158.459 21C187.722 21 176.045 75.8689 204.183 75.8689" stroke="#56CCFE" stroke-width="5" stroke-linecap="round" stroke-linejoin="round"/>
<path opacity="0.4" fill-rule="evenodd" clip-rule="evenodd" d="M53.5449 172.477L76.4712 160.586L99.907 166.554L123.088 134.821L146.269 166.554H169.45L192.631 120.965H213.494V198.312H35L53.5449 172.477Z" fill="#69D5BA"/>
<circle cx="213.494" cy="120.967" r="3.96654" fill="#38AF88"/>
<circle cx="169.861" cy="166.582" r="3.96654" fill="#38AF88"/>
<circle cx="146.062" cy="166.582" r="3.96654" fill="#38AF88"/>
<circle cx="123.256" cy="134.849" r="3.96654" fill="#38AF88"/>
<circle cx="99.4568" cy="166.582" r="3.96654" fill="#38AF88"/>
<circle cx="76.6482" cy="160.631" r="3.96654" fill="#38AF88"/>
<circle cx="53.8415" cy="172.529" r="3.96654" fill="#38AF88"/>
<circle cx="193.66" cy="120.967" r="3.96654" fill="#38AF88"/>
<path d="M35 198.565C35 198.253 35.2529 198 35.5649 198H216.348C216.66 198 216.913 198.253 216.913 198.565V198.565C216.913 198.877 216.66 199.13 216.348 199.13H35.5649C35.2529 199.13 35 198.877 35 198.565V198.565Z" fill="#ACADAD"/>
</svg>
