<svg enable-background="new 0 0 75 75" height="75" viewBox="0 0 75 75" width="75" xmlns="http://www.w3.org/2000/svg" xmlns:xlink="http://www.w3.org/1999/xlink"><linearGradient id="a"><stop offset="0" stop-color="#00a9e1"/><stop offset=".0112" stop-color="#01a7df"/><stop offset=".1992" stop-color="#0985c4"/><stop offset=".3911" stop-color="#106aaf"/><stop offset=".5863" stop-color="#1457a0"/><stop offset=".7866" stop-color="#174c97"/><stop offset="1" stop-color="#184894"/></linearGradient><linearGradient id="b" gradientUnits="userSpaceOnUse" x1="-15.9214" x2="54.1029" xlink:href="#a" y1="21.7554" y2="91.7796"/><linearGradient id="c" gradientUnits="userSpaceOnUse" x1="13.7832" x2="83.8075" xlink:href="#a" y1="-7.9492" y2="62.075"/><linearGradient id="d" gradientUnits="userSpaceOnUse" x1="-13.4116" x2="56.6126" xlink:href="#a" y1="19.2456" y2="89.2699"/><linearGradient id="e" gradientUnits="userSpaceOnUse" x1="-4.6064" x2="65.4178" xlink:href="#a" y1="10.4404" y2="80.4647"/><linearGradient id="f" gradientUnits="userSpaceOnUse" x1="6.5469" x2="76.5711" xlink:href="#a" y1="-.7129" y2="69.3114"/><linearGradient id="g" gradientUnits="userSpaceOnUse" x1="-.7603" x2="69.264" xlink:href="#a" y1="6.5942" y2="76.6185"/><linearGradient id="h" gradientUnits="userSpaceOnUse" x1="14.1904" x2="84.2147" xlink:href="#a" y1="-8.3564" y2="61.6678"/><linearGradient id="i" gradientUnits="userSpaceOnUse" x1="5.0327" x2="75.057" xlink:href="#a" y1=".8013" y2="70.8255"/><linearGradient id="j" gradientUnits="userSpaceOnUse" x1="6.019" x2="76.0433" xlink:href="#a" y1="-.1851" y2="69.8392"/><linearGradient id="k" gradientUnits="userSpaceOnUse" x1="6.8481" x2="76.8724" xlink:href="#a" y1="-1.0142" y2="69.0101"/><linearGradient id="l" gradientUnits="userSpaceOnUse" x1="4.4141" x2="74.4383" xlink:href="#a" y1="1.4199" y2="71.4442"/><linearGradient id="m" gradientUnits="userSpaceOnUse" x1="24.1479" x2="94.1722" xlink:href="#a" y1="-18.314" y2="51.7103"/><linearGradient id="n" gradientUnits="userSpaceOnUse" x1="24.2544" x2="94.2786" xlink:href="#a" y1="-18.4204" y2="51.6038"/><path d="m5.692 69.321c-.387 0-.7-.313-.7-.7v-41.436c0-1.258 1.023-2.281 2.281-2.281h5.906c.387 0 .7.313.7.7s-.313.7-.7.7h-5.906c-.486 0-.881.395-.881.881v41.436c.001.387-.313.7-.7.7z" fill="url(#b)"/><path d="m69.309 69.321c-.387 0-.7-.313-.7-.7v-41.436c0-.486-.396-.881-.881-.881h-6.359c-.387 0-.7-.313-.7-.7s.313-.7.7-.7h6.359c1.258 0 2.281 1.023 2.281 2.281v41.436c0 .387-.314.7-.7.7z" fill="url(#c)"/><path d="m68.37 74.57h-62.095c-1.845 0-3.398-1.319-3.693-3.138l-.443-2.698c-.033-.202.024-.41.157-.566s.328-.247.534-.247h28.78c.229 0 .444.112.575.301l.891 1.279h7.238l.979-1.301c.133-.176.34-.279.56-.279h30.317c.205 0 .4.091.533.247s.19.363.157.565l-.383 2.347c-.331 2.023-2.058 3.49-4.107 3.49zm-64.716-5.249.31 1.886c.185 1.138 1.156 1.963 2.311 1.963h62.095c1.359 0 2.506-.974 2.727-2.315l.25-1.533h-29.146l-.979 1.301c-.133.176-.34.279-.56.279h-7.952c-.229 0-.444-.112-.575-.301l-.891-1.279h-27.59z" fill="url(#d)"/><path d="m37.564 48.742c-.122 0-.244-.031-.356-.098l-22.417-13.278c-.333-.197-.442-.626-.245-.959s.626-.442.959-.245l22.417 13.277c.333.197.442.627.246.959-.132.221-.365.344-.604.344z" fill="url(#e)"/><path d="m37.565 48.742c-.241 0-.475-.124-.605-.347-.195-.334-.083-.763.251-.958l22.394-13.08c.337-.195.765-.081.958.251.195.334.082.763-.251.958l-22.395 13.08c-.11.065-.232.096-.352.096z" fill="url(#f)"/><path d="m58.064 56.763c-.005 0-.01 0-.015 0l-2.729-.015-10.396-.185-28.151-.013c-1.487-.008-2.69-1.223-2.685-2.707l.071-18.063c.007-.952.518-1.838 1.333-2.315l3.215-1.887c.332-.196.762-.085.958.249.196.333.084.763-.249.958l-3.216 1.888c-.393.229-.638.657-.641 1.115l-.071 18.062c-.003.713.576 1.297 1.289 1.301l28.159.013 13.121.199c.338-.018.678-.133.926-.378.248-.246.386-.574.387-.925l.071-18.26c.002-.465-.246-.899-.646-1.131l-2.846-1.854c-.323-.211-.415-.645-.203-.969.21-.324.644-.414.969-.204l2.813 1.834c.802.464 1.317 1.364 1.313 2.329l-.071 18.26c-.003.724-.287 1.403-.802 1.913-.509.506-1.185.785-1.904.785z" fill="url(#g)"/><path d="m54.051 38.548c-.387 0-.7-.313-.7-.7v-12.687c0-.387.313-.7.7-.7s.7.313.7.7v12.687c0 .386-.313.7-.7.7z" fill="url(#h)"/><path d="m21.504 38.548c-.387 0-.7-.313-.7-.7v-13.015c0-.387.313-.7.7-.7h5.603c1.728 0 3.134-1.406 3.134-3.134v-5.795c0-.387.313-.7.7-.7h9.069c.387 0 .7.313.7.7s-.313.7-.7.7h-8.369v5.095c0 2.5-2.034 4.534-4.534 4.534h-4.902v12.314c-.001.387-.314.701-.701.701z" fill="url(#i)"/><path d="m21.504 25.533c-.177 0-.354-.067-.49-.2-.276-.271-.281-.714-.01-.99l9.437-9.629c.27-.277.713-.28.99-.01.276.271.281.714.01.99l-9.437 9.629c-.137.14-.318.21-.5.21z" fill="url(#j)"/><path d="m45.149 30.401h-15.17c-.387 0-.7-.313-.7-.7s.313-.7.7-.7h15.171c.387 0 .7.313.7.7s-.314.7-.701.7z" fill="url(#k)"/><path d="m45.149 35.27h-15.17c-.387 0-.7-.313-.7-.7s.313-.7.7-.7h15.171c.387 0 .7.313.7.7s-.314.7-.701.7z" fill="url(#l)"/><path d="m54.043 22.32c-2.84 0-5.522-1.079-7.577-3.052-2.107-2.026-3.301-4.751-3.358-7.674s1.025-5.694 3.051-7.802 4.752-3.302 7.676-3.359c2.068-.044 4.096.5 5.86 1.563.331.2.438.63.238.961-.2.332-.628.438-.961.238-1.538-.926-3.305-1.383-5.11-1.363-2.55.051-4.927 1.091-6.693 2.93s-2.711 4.255-2.66 6.805c.05 2.548 1.09 4.925 2.929 6.691s4.229 2.713 6.806 2.66c2.548-.051 4.925-1.091 6.691-2.929s2.711-4.254 2.659-6.803c-.02-1-.193-1.984-.517-2.925-.126-.366.069-.764.435-.89.367-.125.765.069.89.435.371 1.079.57 2.207.593 3.352.059 2.922-1.024 5.692-3.051 7.801-2.025 2.108-4.75 3.301-7.673 3.358-.077.002-.153.003-.228.003z" fill="url(#m)"/><g fill="url(#n)"><path d="m55.17 15.955h-5.223c-.387 0-.7-.313-.7-.7s.313-.7.7-.7h5.223c.684 0 1.239-.555 1.239-1.238 0-.684-.556-1.241-1.239-1.241h-2.088c-1.456 0-2.641-1.185-2.641-2.641s1.185-2.641 2.641-2.641h5.07c.387 0 .7.313.7.7s-.313.7-.7.7h-5.07c-.684 0-1.24.556-1.24 1.24s.557 1.24 1.24 1.24h2.088c1.455 0 2.64 1.185 2.64 2.641s-1.185 2.64-2.64 2.64z"/><path d="m54.051 19.163c-.387 0-.7-.313-.7-.7v-14.174c0-.387.313-.7.7-.7s.7.313.7.7v14.174c0 .386-.313.7-.7.7z"/></g></svg>