<svg enable-background="new 0 0 75 75" height="75" viewBox="0 0 75 75" width="75" xmlns="http://www.w3.org/2000/svg" xmlns:xlink="http://www.w3.org/1999/xlink"><linearGradient id="a"><stop offset="0" stop-color="#00a9e1"/><stop offset=".0112" stop-color="#01a7df"/><stop offset=".1992" stop-color="#0985c4"/><stop offset=".3911" stop-color="#106aaf"/><stop offset=".5863" stop-color="#1457a0"/><stop offset=".7866" stop-color="#174c97"/><stop offset="1" stop-color="#184894"/></linearGradient><linearGradient id="b" gradientUnits="userSpaceOnUse" x1="3.9492" x2="75.0327" xlink:href="#a" y1="4.7188" y2="75.8022"/><linearGradient id="c" gradientUnits="userSpaceOnUse" x1="-11.4902" x2="59.5932" xlink:href="#a" y1="20.1582" y2="91.2417"/><linearGradient id="d" gradientUnits="userSpaceOnUse" x1="-6.2642" x2="64.8193" xlink:href="#a" y1="14.9321" y2="86.0156"/><linearGradient id="e" gradientUnits="userSpaceOnUse" x1="-14.0674" x2="57.0161" xlink:href="#a" y1="22.7354" y2="93.8188"/><linearGradient id="f" gradientUnits="userSpaceOnUse" x1="8.0674" x2="79.1508" xlink:href="#a" y1=".6006" y2="71.684"/><linearGradient id="g" gradientUnits="userSpaceOnUse" x1="17.2031" x2="88.2866" xlink:href="#a" y1="-8.5352" y2="62.5483"/><linearGradient id="h" gradientUnits="userSpaceOnUse" x1="9.458" x2="80.5415" xlink:href="#a" y1="-.79" y2="70.2934"/><path d="m69.683 56.967h-65.231c-.387 0-.7-.313-.7-.7v-35.492c0-2.209 1.798-4.007 4.007-4.007h10.376c.387 0 .7.313.7.7s-.313.7-.7.7h-10.376c-1.438 0-2.607 1.169-2.607 2.607v34.792h63.83v-34.792c0-1.438-1.17-2.607-2.607-2.607h-10.527c-.387 0-.7-.313-.7-.7s.313-.7.7-.7h10.527c2.21 0 4.008 1.798 4.008 4.007v35.492c0 .386-.314.7-.7.7z" fill="url(#b)"/><path d="m46.894 74.481h-19.652c-.387 0-.7-.313-.7-.7v-10.13c0-.387.313-.7.7-.7h19.652c.387 0 .7.313.7.7v10.13c0 .387-.314.7-.7.7zm-18.952-1.4h18.251v-8.729h-18.251z" fill="url(#c)"/><path d="m66.332 64.352h-58.528c-2.234 0-4.052-1.817-4.052-4.051v-5.458c0-.387.313-.7.7-.7s.7.313.7.7v5.458c0 1.462 1.189 2.65 2.651 2.65h58.528c1.462 0 2.65-1.188 2.65-2.65v-5.458c0-.387.313-.7.7-.7s.7.313.7.7v5.458c.002 2.233-1.816 4.051-4.049 4.051z" fill="url(#d)"/><path d="m50.973 74.7h-27.55c-.387 0-.7-.313-.7-.7s.313-.7.7-.7h27.55c.387 0 .7.313.7.7s-.314.7-.7.7z" fill="url(#e)"/><path d="m53.216 46.267h-32.038c-.387 0-.7-.313-.7-.7v-31.256c0-.941.766-1.708 1.707-1.708h30.024c.941 0 1.707.766 1.707 1.708v31.256c0 .386-.313.7-.7.7zm-31.338-1.401h30.638v-30.555c0-.169-.138-.307-.307-.307h-30.024c-.169 0-.307.138-.307.307z" fill="url(#f)"/><path d="m47.243 16.501c-.387 0-.7-.313-.7-.7v-4.53c0-5.155-4.192-9.349-9.346-9.349-5.155 0-9.348 4.194-9.348 9.349v4.53c0 .387-.313.7-.7.7s-.7-.313-.7-.7v-4.53c0-5.927 4.822-10.749 10.749-10.749 5.926 0 10.746 4.822 10.746 10.749v4.53c-.001.387-.314.7-.701.7z" fill="url(#g)"/><path d="m37.18 36.721c-.179 0-.357-.068-.494-.204l-6.131-6.101c-.911-.944-1.407-2.171-1.407-3.464 0-2.751 2.238-4.989 4.989-4.989 1.125 0 2.189.369 3.061 1.051.872-.682 1.936-1.051 3.058-1.051 2.752 0 4.99 2.238 4.99 4.989 0 1.067-.336 2.087-.972 2.948-.013.017-.211.269-.288.355l-6.314 6.263c-.136.135-.314.203-.492.203zm-3.043-13.358c-1.979 0-3.588 1.61-3.588 3.589 0 .929.356 1.811 1.004 2.482l5.628 5.6 5.79-5.742c.032-.038.188-.237.189-.239.444-.603.686-1.334.686-2.101 0-1.979-1.61-3.589-3.59-3.589-.968 0-1.877.383-2.559 1.078-.131.134-.312.21-.5.21-.188 0-.368-.076-.5-.21-.68-.695-1.59-1.078-2.56-1.078z" fill="url(#h)"/></svg>