<svg enable-background="new 0 0 75 75" height="75" viewBox="0 0 75 75" width="75" xmlns="http://www.w3.org/2000/svg" xmlns:xlink="http://www.w3.org/1999/xlink"><linearGradient id="a"><stop offset="0" stop-color="#00a9e1"/><stop offset=".0112" stop-color="#01a7df"/><stop offset=".1992" stop-color="#0985c4"/><stop offset=".3911" stop-color="#106aaf"/><stop offset=".5863" stop-color="#1457a0"/><stop offset=".7866" stop-color="#174c97"/><stop offset="1" stop-color="#184894"/></linearGradient><linearGradient id="b" gradientUnits="userSpaceOnUse" x1="4.8355" x2="61.7625" xlink:href="#a" y1="4.8878" y2="61.8148"/><linearGradient id="c" gradientUnits="userSpaceOnUse" x1="4.0768" x2="61.0038" xlink:href="#a" y1="5.6465" y2="62.5735"/><linearGradient id="d" gradientUnits="userSpaceOnUse" x1="4.8618" x2="61.7888" xlink:href="#a" y1="4.8615" y2="61.7885"/><linearGradient id="e" gradientUnits="userSpaceOnUse" x1="17.0867" x2="74.0137" xlink:href="#a" y1="-7.3634" y2="49.5636"/><linearGradient id="f" gradientUnits="userSpaceOnUse" x1="21.9051" x2="78.832" xlink:href="#a" y1="-12.1817" y2="44.7452"/><linearGradient id="g" gradientUnits="userSpaceOnUse" x1="24.6173" x2="81.5443" xlink:href="#a" y1="-14.894" y2="42.033"/><linearGradient id="h" gradientUnits="userSpaceOnUse" x1="25.5121" x2="82.4391" xlink:href="#a" y1="-15.7888" y2="41.1382"/><linearGradient id="i" gradientUnits="userSpaceOnUse" x1="10.6214" x2="67.5483" xlink:href="#a" y1="-.898" y2="56.0289"/><linearGradient id="j" gradientUnits="userSpaceOnUse" x1="2.8182" x2="59.7451" xlink:href="#a" y1="6.9052" y2="63.8321"/><linearGradient id="k" gradientUnits="userSpaceOnUse" x1="-4.6827" x2="52.2443" xlink:href="#a" y1="14.406" y2="71.333"/><linearGradient id="l" gradientUnits="userSpaceOnUse" x1="-7.3634" x2="49.5636" xlink:href="#a" y1="17.0867" y2="74.0137"/><linearGradient id="m" gradientUnits="userSpaceOnUse" x1="-12.1817" x2="44.7453" xlink:href="#a" y1="21.9051" y2="78.832"/><linearGradient id="n" gradientUnits="userSpaceOnUse" x1="-14.8938" x2="42.0332" xlink:href="#a" y1="24.6171" y2="81.5441"/><linearGradient id="o" gradientUnits="userSpaceOnUse" x1="-15.7887" x2="41.1383" xlink:href="#a" y1="25.512" y2="82.439"/><linearGradient id="p" gradientUnits="userSpaceOnUse" x1="-.8978" x2="56.0292" xlink:href="#a" y1="10.6211" y2="67.5481"/><linearGradient id="q" gradientUnits="userSpaceOnUse" x1="6.9054" x2="63.8324" xlink:href="#a" y1="2.8179" y2="59.7449"/><linearGradient id="r" gradientUnits="userSpaceOnUse" x1="14.4062" x2="71.3331" xlink:href="#a" y1="-4.6828" y2="52.2441"/><path d="m37.5 57.8c-9.6 0-18.1-5.4-23.6-9.9-5.9-4.9-9.5-9.7-9.6-9.9-.2-.2-.2-.6 0-.8s3.8-5 9.7-9.9c5.5-4.5 14-9.9 23.5-9.9 10.2 0 19.3 6.2 25.2 11.4.3.3.3.7.1 1-.3.3-.7.3-1 .1-5.7-5-14.5-11-24.2-11-16-.3-29.6 15.8-31.9 18.6 2.3 2.8 15.7 18.9 31.8 18.9s29.5-16 31.8-18.9c-.5-.6-1.6-2-3.1-3.6-.3-.3-.3-.7 0-1s.7-.3 1 0c2.2 2.4 3.5 4.1 3.6 4.1.2.2.2.6 0 .8s-3.7 5-9.6 9.9c-5.6 4.7-14.1 10.1-23.7 10.1z" fill="url(#b)"/><path d="m37.5 45.8c-4.6 0-8.3-3.7-8.3-8.3s3.7-8.3 8.3-8.3c.4 0 .7.3.7.7s-.3.7-.7.7c-3.8 0-6.9 3.1-6.9 6.9s3.1 6.9 6.9 6.9 6.9-3.1 6.9-6.9c0-.4.3-.7.7-.7s.7.3.7.7c0 4.6-3.7 8.3-8.3 8.3z" fill="url(#c)"/><path d="m37.5 52.1c-8 0-14.6-6.5-14.6-14.6 0-8 6.5-14.6 14.6-14.6s14.6 6.5 14.6 14.6c0 8-6.6 14.6-14.6 14.6zm0-27.8c-7.3 0-13.2 5.9-13.2 13.2s5.9 13.2 13.2 13.2 13.2-5.9 13.2-13.2-5.9-13.2-13.2-13.2z" fill="url(#d)"/><path d="m37.5 14.3c-.4 0-.7-.3-.7-.7v-1.2c0-.4.3-.7.7-.7s.7.3.7.7v1.2c0 .4-.3.7-.7.7z" fill="url(#e)"/><path d="m48.6 16c-.1 0-.1 0-.2 0-.4-.1-.6-.5-.5-.9l.3-1.1c.1-.4.5-.6.9-.5s.6.5.5.9l-.3 1.1c-.1.3-.4.5-.7.5z" fill="url(#f)"/><path d="m59 21c-.1 0-.2 0-.4-.1-.3-.2-.4-.6-.2-1l.6-1c.2-.3.6-.4 1-.2.3.2.4.6.2 1l-.6 1c-.1.2-.4.3-.6.3z" fill="url(#g)"/><path d="m67.3 27.5c-.2 0-.3-.1-.5-.2-.3-.2-.3-.7-.1-1l.7-.9c.2-.3.7-.3 1-.1s.3.7.1 1l-.7.9c-.1.3-.3.3-.5.3z" fill="url(#h)"/><path d="m26.4 16c-.3 0-.6-.2-.7-.5l-.3-1.1c-.1-.4.1-.8.5-.9s.8.1.9.5l.3 1.1c.1.4-.1.8-.5.9-.1-.1-.2 0-.2 0z" fill="url(#i)"/><path d="m16 21c-.2 0-.5-.1-.6-.3l-.6-1c-.2-.3-.1-.8.2-1s.8-.1 1 .2l.6 1c.2.3.1.8-.2 1-.2.1-.3.1-.4.1z" fill="url(#j)"/><path d="m7.7 27.5c-.2 0-.4-.1-.5-.2l-.7-.9c-.2-.3-.2-.7.1-1 .3-.2.7-.2 1 .1l.7.9c.2.3.2.7-.1 1-.2.1-.4.1-.5.1z" fill="url(#k)"/><path d="m37.5 63.2c-.4 0-.7-.3-.7-.7v-1.2c0-.4.3-.7.7-.7s.7.3.7.7v1.2c0 .4-.3.7-.7.7z" fill="url(#l)"/><path d="m26.1 61.6c-.1 0-.1 0-.2 0-.4-.1-.6-.5-.5-.9l.3-1.1c.1-.4.5-.6.9-.5s.6.5.5.9l-.3 1.1c-.2.3-.4.5-.7.5z" fill="url(#m)"/><path d="m15.4 56.4c-.1 0-.2 0-.4-.1-.3-.2-.4-.6-.2-1l.6-1c.2-.3.6-.4 1-.2.3.2.4.6.2 1l-.6 1c-.1.2-.4.3-.6.3z" fill="url(#n)"/><path d="m6.9 49.7c-.2 0-.3-.1-.5-.2-.3-.2-.3-.7-.1-1l.7-.9c.2-.3.7-.3 1-.1s.3.7.1 1l-.7.9c-.1.3-.3.3-.5.3z" fill="url(#o)"/><path d="m48.9 61.6c-.3 0-.6-.2-.7-.5l-.3-1.1c-.1-.4.1-.8.5-.9s.8.1.9.5l.3 1.1c.1.4-.1.8-.5.9 0 0-.1 0-.2 0z" fill="url(#p)"/><path d="m59.6 56.4c-.2 0-.5-.1-.6-.3l-.6-1c-.2-.3-.1-.8.2-1s.8-.1 1 .2l.6 1c.2.3.1.8-.2 1-.2.1-.3.1-.4.1z" fill="url(#q)"/><path d="m68.1 49.7c-.2 0-.4-.1-.5-.2l-.7-.9c-.2-.3-.2-.7.1-1 .3-.2.7-.2 1 .1l.7.9c.2.3.2.7-.1 1-.2.1-.4.1-.5.1z" fill="url(#r)"/></svg>